<?xml version="1.0" encoding="UTF-8"?>
<!-- COSMIC Ollama Applet Icon - AI Chat Symbolic -->
<svg viewBox="0 0 16 16" xmlns="http://www.w3.org/2000/svg">
  <!-- Chat bubble outline -->
  <path fill="currentColor" d="M2 2.5C2 1.67 2.67 1 3.5 1h9C13.33 1 14 1.67 14 2.5v7c0 .83-.67 1.5-1.5 1.5H8.5l-3 3v-3H3.5C2.67 11 2 10.33 2 9.5v-7zM3.5 2a.5.5 0 0 0-.5.5v7a.5.5 0 0 0 .5.5H6v2l2-2h4.5a.5.5 0 0 0 .5-.5v-7a.5.5 0 0 0-.5-.5h-9z"/>
  <!-- Stylized AI circuit/brain pattern inside bubble -->
  <circle fill="currentColor" cx="5" cy="5.5" r="0.75"/>
  <circle fill="currentColor" cx="8" cy="4" r="0.75"/>
  <circle fill="currentColor" cx="11" cy="5.5" r="0.75"/>
  <circle fill="currentColor" cx="6.5" cy="7.5" r="0.75"/>
  <circle fill="currentColor" cx="9.5" cy="7.5" r="0.75"/>
  <!-- Connection lines between nodes -->
  <path fill="none" stroke="currentColor" stroke-width="0.6" d="M5 5.5L8 4L11 5.5M5 5.5L6.5 7.5L9.5 7.5L11 5.5M8 4L6.5 7.5M8 4L9.5 7.5"/>
</svg>